<?xml version="1.0" encoding="UTF-8" standalone="no"?>
<!-- Created with Inkscape (http://www.inkscape.org/) -->

<svg
   version="1.1"
   id="svg1"
   xml:space="preserve"
   width="263.04373"
   height="263.04373"
   xmlns:inkscape="http://www.inkscape.org/namespaces/inkscape"
   xmlns:sodipodi="http://sodipodi.sourceforge.net/DTD/sodipodi-0.dtd"
   xmlns="http://www.w3.org/2000/svg"
   xmlns:svg="http://www.w3.org/2000/svg"><defs
     id="defs1"><clipPath
       clipPathUnits="userSpaceOnUse"
       id="clipPath9"><path
         d="M 179.417,217.85 H 408.189 V 429.308 H 179.417 Z"
         transform="translate(-308.62561,-232.72011)"
         id="path9" /></clipPath><clipPath
       clipPathUnits="userSpaceOnUse"
       id="clipPath11"><path
         d="M 179.417,217.85 H 408.189 V 429.308 H 179.417 Z"
         transform="translate(-332.40861,-232.72011)"
         id="path11" /></clipPath><clipPath
       clipPathUnits="userSpaceOnUse"
       id="clipPath13"><path
         d="M 179.417,217.85 H 408.189 V 429.308 H 179.417 Z"
         transform="translate(-351.40311,-221.11261)"
         id="path13" /></clipPath><clipPath
       clipPathUnits="userSpaceOnUse"
       id="clipPath15"><path
         d="M 179.417,217.85 H 408.189 V 429.308 H 179.417 Z"
         transform="translate(-387.10081,-223.78401)"
         id="path15" /></clipPath><clipPath
       clipPathUnits="userSpaceOnUse"
       id="clipPath17"><path
         d="M 179.417,217.85 H 408.189 V 429.308 H 179.417 Z"
         id="path17" /></clipPath><clipPath
       clipPathUnits="userSpaceOnUse"
       id="clipPath19"><path
         d="M 179.417,217.85 H 408.189 V 429.308 H 179.417 Z"
         transform="translate(-232.0852,-372.21071)"
         id="path19" /></clipPath></defs><sodipodi:namedview
     id="namedview1"
     pagecolor="#505050"
     bordercolor="#eeeeee"
     borderopacity="1"
     inkscape:showpageshadow="0"
     inkscape:pageopacity="0"
     inkscape:pagecheckerboard="0"
     inkscape:deskcolor="#505050" /><inkscape:clipboard
     style="font-variation-settings:normal;opacity:1;vector-effect:none;fill:#ffffff;fill-opacity:1;stroke-width:3.77952756;stroke-linecap:butt;stroke-linejoin:miter;stroke-miterlimit:4;stroke-dasharray:none;stroke-dashoffset:0;stroke-opacity:1;-inkscape-stroke:none;stop-color:#000000;stop-opacity:1"
     min="169.88663,116.71224"
     max="432.93037,379.75597"
     geom-min="169.88663,116.71224"
     geom-max="432.93037,379.75597"
     page-min="0,0"
     page-max="4032.0002,2880" /><g
     id="g1"
     transform="matrix(3.7795276,0,0,3.7795276,-169.88663,-116.71224)"><g
       id="g481"
       transform="translate(-387.60679,-12.294989)"><path
         id="path222"
         d="m 502.15295,77.973595 a 34.798492,34.798492 0 0 1 -34.79849,34.798495 34.798492,34.798492 0 0 1 -34.7985,-34.798495 34.798492,34.798492 0 0 1 34.7985,-34.798492 34.798492,34.798492 0 0 1 34.79849,34.798492 z" /><g
         id="g221"
         transform="matrix(0.26458333,0,0,0.26458333,363.24384,-12.347852)"
         style="display:inline;fill:#ffffff;fill-opacity:1"><path
           id="path210"
           d="m 0,0 v -17.305 h 3.309 v 7.045 h 8.346 v 3.049 H 3.309 v 4.279 h 9.409 V 0 Z"
           style="display:none;fill:#ffffff;fill-opacity:1;fill-rule:nonzero;stroke:none"
           transform="matrix(1.3333333,0,0,-1.3333333,239.2224,502.0176)" /><path
           id="path211"
           d="M 0,0 V -2.932 H -12.459 V 14.373 H -9.15 V 0 Z"
           style="display:none;fill:#ffffff;fill-opacity:1;fill-rule:nonzero;stroke:none"
           transform="matrix(1.3333333,0,0,-1.3333333,281.4292,521.1832)" /><path
           id="path212"
           d="M 0,0 V -4.327 H 8.369 V -7.328 H 0 v -4.067 h 9.432 v -2.978 H -3.309 V 2.932 H 9.432 V 0 Z"
           style="display:none;fill:#ffffff;fill-opacity:1;fill-rule:nonzero;stroke:none"
           transform="matrix(1.3333333,0,0,-1.3333333,293.6584,505.92693)" /><path
           id="path213"
           d="M 0,0 V -4.327 H 8.369 V -7.328 H 0 v -4.067 h 9.432 v -2.978 H -3.309 V 2.932 H 9.432 V 0 Z"
           style="display:none;fill:#ffffff;fill-opacity:1;fill-rule:nonzero;stroke:none"
           transform="matrix(1.3333333,0,0,-1.3333333,320.23053,505.92693)" /><path
           id="path214"
           d="M 0,0 H -4.941 V -14.373 H -8.25 V 0 h -4.965 V 2.932 H 0 Z"
           style="display:none;fill:#ffffff;fill-opacity:1;fill-rule:nonzero;stroke:none"
           transform="matrix(1.3333333,0,0,-1.3333333,357.64667,505.92693)" /><path
           id="path215"
           d="m 0,0 -6.454,-17.282 h -0.331 l -4.681,10.072 -4.728,-10.095 h -0.307 L -22.885,0 h 3.523 l 3.381,-9.48 4.397,9.48 h 0.212 L -6.974,-9.504 -3.523,0 Z"
           style="display:none;fill:#ffffff;fill-opacity:1;fill-rule:nonzero;stroke:none"
           transform="matrix(1.3333333,0,0,-1.3333333,394.116,502.04947)" /><path
           id="path216"
           d="M 0,0 C -0.787,0 -1.522,-0.162 -2.207,-0.485 -2.89,-0.808 -3.488,-1.238 -4,-1.773 c -0.511,-0.535 -0.915,-1.162 -1.214,-1.88 -0.3,-0.716 -0.448,-1.461 -0.448,-2.233 0,-0.789 0.148,-1.537 0.448,-2.246 0.299,-0.709 0.703,-1.336 1.214,-1.88 0.512,-0.543 1.11,-0.977 1.793,-1.3 0.685,-0.323 1.42,-0.485 2.207,-0.485 0.786,0 1.521,0.162 2.206,0.485 0.683,0.323 1.282,0.757 1.792,1.3 0.512,0.544 0.917,1.171 1.216,1.88 0.298,0.709 0.447,1.457 0.447,2.246 0,0.772 -0.149,1.517 -0.447,2.233 -0.299,0.718 -0.704,1.345 -1.216,1.88 -0.51,0.535 -1.109,0.965 -1.792,1.288 C 1.521,-0.162 0.786,0 0,0 m -0.012,-14.87 c -1.229,0 -2.388,0.236 -3.475,0.71 -1.088,0.472 -2.038,1.114 -2.849,1.926 -0.812,0.811 -1.454,1.762 -1.927,2.849 -0.472,1.087 -0.709,2.254 -0.709,3.499 0,1.229 0.237,2.391 0.709,3.486 0.473,1.096 1.115,2.049 1.927,2.861 0.811,0.812 1.761,1.454 2.849,1.927 1.087,0.473 2.246,0.709 3.475,0.709 C 1.233,3.097 2.4,2.861 3.486,2.388 4.574,1.915 5.524,1.273 6.335,0.461 7.147,-0.351 7.79,-1.304 8.262,-2.4 c 0.473,-1.095 0.71,-2.257 0.71,-3.486 0,-1.245 -0.237,-2.412 -0.71,-3.499 C 7.79,-10.472 7.147,-11.423 6.335,-12.234 5.524,-13.046 4.574,-13.688 3.486,-14.16 2.4,-14.634 1.233,-14.87 -0.012,-14.87"
           style="display:none;fill:#ffffff;fill-opacity:1;fill-rule:nonzero;stroke:none"
           transform="matrix(1.3333333,0,0,-1.3333333,411.5008,505.70653)"
           clip-path="url(#clipPath9)" /><path
           id="path217"
           d="M 0,0 C -0.787,0 -1.522,-0.162 -2.207,-0.485 -2.89,-0.808 -3.488,-1.238 -4,-1.773 c -0.511,-0.535 -0.915,-1.162 -1.214,-1.88 -0.3,-0.716 -0.448,-1.461 -0.448,-2.233 0,-0.789 0.148,-1.537 0.448,-2.246 0.299,-0.709 0.703,-1.336 1.214,-1.88 0.512,-0.543 1.11,-0.977 1.793,-1.3 0.685,-0.323 1.42,-0.485 2.207,-0.485 0.786,0 1.521,0.162 2.206,0.485 0.683,0.323 1.282,0.757 1.792,1.3 0.512,0.544 0.917,1.171 1.216,1.88 0.298,0.709 0.447,1.457 0.447,2.246 0,0.772 -0.149,1.517 -0.447,2.233 -0.299,0.718 -0.704,1.345 -1.216,1.88 -0.51,0.535 -1.109,0.965 -1.792,1.288 C 1.521,-0.162 0.786,0 0,0 m -0.012,-14.87 c -1.229,0 -2.388,0.236 -3.476,0.71 -1.087,0.472 -2.037,1.114 -2.848,1.926 -0.812,0.811 -1.454,1.762 -1.927,2.849 -0.472,1.087 -0.709,2.254 -0.709,3.499 0,1.229 0.237,2.391 0.709,3.486 0.473,1.096 1.115,2.049 1.927,2.861 0.811,0.812 1.761,1.454 2.848,1.927 1.088,0.473 2.247,0.709 3.476,0.709 C 1.233,3.097 2.4,2.861 3.486,2.388 4.574,1.915 5.524,1.273 6.335,0.461 7.147,-0.351 7.79,-1.304 8.262,-2.4 c 0.473,-1.095 0.71,-2.257 0.71,-3.486 0,-1.245 -0.237,-2.412 -0.71,-3.499 C 7.79,-10.472 7.147,-11.423 6.335,-12.234 5.524,-13.046 4.574,-13.688 3.486,-14.16 2.4,-14.634 1.233,-14.87 -0.012,-14.87"
           style="display:none;fill:#ffffff;fill-opacity:1;fill-rule:nonzero;stroke:none"
           transform="matrix(1.3333333,0,0,-1.3333333,443.21147,505.70653)"
           clip-path="url(#clipPath11)" /><path
           id="path218"
           d="M 0,0 H 3.523 C 4.137,0 4.76,0.071 5.39,0.212 6.021,0.355 6.592,0.634 7.105,1.052 7.616,1.469 8.038,2.049 8.369,2.789 8.7,3.53 8.865,4.5 8.865,5.698 8.865,6.895 8.7,7.869 8.369,8.617 8.038,9.366 7.612,9.945 7.092,10.355 6.573,10.765 5.997,11.04 5.367,11.182 4.736,11.324 4.121,11.395 3.523,11.395 H 0 Z m 3.512,-2.932 h -6.821 v 17.305 h 6.821 c 2.471,0 4.501,-0.724 6.091,-2.174 0.849,-0.772 1.49,-1.706 1.923,-2.802 0.433,-1.095 0.65,-2.32 0.65,-3.676 0,-1.371 -0.217,-2.604 -0.65,-3.7 C 11.093,0.926 10.452,-0.008 9.603,-0.78 8.831,-1.489 7.93,-2.025 6.9,-2.387 5.869,-2.75 4.74,-2.932 3.512,-2.932"
           style="display:none;fill:#ffffff;fill-opacity:1;fill-rule:nonzero;stroke:none"
           transform="matrix(1.3333333,0,0,-1.3333333,468.53747,521.1832)"
           clip-path="url(#clipPath13)" /><path
           id="path219"
           d="M 0,0 H 4.941 L 2.482,5.225 Z M -6.525,-5.603 2.317,11.679 H 2.648 L 11.49,-5.603 H 7.896 l -1.347,2.719 h -8.157 l -1.324,-2.719 z"
           style="display:none;fill:#ffffff;fill-opacity:1;fill-rule:nonzero;stroke:none"
           transform="matrix(1.3333333,0,0,-1.3333333,516.1344,517.62133)"
           clip-path="url(#clipPath15)" /><path
           id="path220"
           d="m 408.189,218.181 h -3.31 v 17.282 h 3.31 z"
           style="display:none;fill:#ffffff;fill-opacity:1;fill-rule:nonzero;stroke:none"
           transform="matrix(1.3333333,0,0,-1.3333333,0,816)"
           clip-path="url(#clipPath17)" /><path
           id="path221"
           d="m 0,0 -16.24,-16.24 13.135,-13.135 h 32.48 z M 57.096,5.7 V 57.096 L 31.399,31.399 Z m -48.33,-46.946 48.33,-48.33 v 32.48 l -15.85,15.85 z M 68.967,57.096 V 5.667 L 94.681,31.382 Z M 126.08,-0.017 96.722,-29.375 h 32.446 l 13.135,13.135 z M 8.394,8.394 57.096,-40.308 v 29.22 L 23.004,23.004 Z M 103.075,22.987 68.967,-11.121 V -40.342 L 117.686,8.377 Z M 68.967,-57.13 v -32.446 l 48.33,48.33 H 84.851 Z"
           style="fill:#ffffff;fill-opacity:1;fill-rule:nonzero;stroke:none"
           transform="matrix(1.3333333,0,0,-1.3333333,309.44693,319.71907)"
           clip-path="url(#clipPath19)" /></g></g></g></svg>
