<?xml version="1.0" encoding="UTF-8" standalone="no"?>
<!-- Created with Inkscape (http://www.inkscape.org/) -->

<svg
   version="1.1"
   id="svg1"
   xml:space="preserve"
   width="625.66541"
   height="245.74016"
   xmlns:inkscape="http://www.inkscape.org/namespaces/inkscape"
   xmlns:sodipodi="http://sodipodi.sourceforge.net/DTD/sodipodi-0.dtd"
   xmlns="http://www.w3.org/2000/svg"
   xmlns:svg="http://www.w3.org/2000/svg"><defs
     id="defs1" /><sodipodi:namedview
     id="namedview1"
     pagecolor="#505050"
     bordercolor="#eeeeee"
     borderopacity="1"
     inkscape:showpageshadow="0"
     inkscape:pageopacity="0"
     inkscape:pagecheckerboard="0"
     inkscape:deskcolor="#505050" /><inkscape:clipboard
     min="-3932.6181,679.0224"
     max="-3306.9527,924.76256"
     geom-min="-3932.6181,679.0224"
     geom-max="-3306.9527,924.76256"
     page-min="-4007.9998,-332"
     page-max="-199.99985,1908.0001" /><g
     id="g1"
     transform="matrix(3.7795276,0,0,3.7795276,3932.6181,-679.02241)"><path
       style="display:inline;fill:#000000;fill-opacity:0.823529"
       d="m -1007.9016,244.58246 -0.5292,0.0943 -0.7276,-0.1155 -0.7276,-0.11549 v -0.44545 -0.44544 l 0.5035,-2.38125 0.5034,-2.38125 0.9306,-2.77813 0.9306,-2.77812 0.9664,-2.30759 0.9663,-2.3076 1.2836,-2.4549 1.2836,-2.45491 1.2087,-2.38125 1.2087,-2.38125 0.42145,-1.98438 0.42142,-1.98437 -0.15038,-2.38125 -0.15038,-2.38125 -0.4347,-1.45321 -0.43471,-1.45321 -1.0307,-1.98637 -1.0307,-1.98638 -0.3238,-0.52916 -0.3239,-0.52917 -0.7989,-1.31367 -0.799,-1.31366 -0.8814,-1.99363 -0.8813,-1.99362 -1.6096,-4.10104 -1.6095,-4.10105 -0.1177,-3.9026 -0.1176,-3.9026 h 2.3813 2.3812 l 0.113,3.9026 0.113,3.9026 1.0037,3.175 1.0036,3.175 1.0407,3.175 1.0407,3.175 0.6248,1.32292 0.6247,1.32292 0.929,1.99387 0.92899,1.99387 0.47063,1.71029 0.47063,1.7103 0.0106,3.30729 0.0106,3.30729 -0.61536,1.98438 -0.61536,1.98437 -0.66361,1.32292 -0.66361,1.32291 -1.13381,3.04271 -1.1339,3.04271 -0.7141,2.24896 -0.7141,2.24896 -0.7621,2.97717 -0.7621,2.97717 -0.3145,2.24835 -0.3145,2.24835 -1.0844,0.004 -1.0844,0.004 z m -3.8237,-0.13009 -0.4097,-0.0286 -1.7198,-0.30217 -1.7197,-0.30217 0.054,-1.32292 0.054,-1.32291 0.827,-2.51355 0.8271,-2.51354 1.2307,-2.64583 1.2306,-2.64583 1.3429,-2.38125 1.343,-2.38125 0.6466,-0.95854 0.6467,-0.95853 1.1774,-1.68458 1.1774,-1.68459 0.7784,-1.98709 0.7784,-1.98709 0.1269,-2.51372 0.1269,-2.51372 -0.4218,-1.64677 -0.4219,-1.64676 -0.782,-1.5491 -0.782,-1.54909 -0.9179,-1.20259 -0.918,-1.20258 -0.3304,-0.62846 -0.3305,-0.62846 -0.7306,-0.8414 -0.7306,-0.8414 -1.5314,-2.85493 -1.5313,-2.85493 -1.5603,-3.44742 -1.5603,-3.44742 -0.1457,-3.46858 -0.1458,-3.46859 1.824,-0.31726 1.824,-0.31726 0.5627,-0.1136 0.5626,-0.11361 0.1268,3.89945 0.1268,3.89945 1.2459,3.3073 1.2458,3.30729 1.2266,2.91041 1.2266,2.91042 0.9451,1.5875 0.9451,1.5875 0.4726,0.79375 0.4727,0.79375 0.9034,1.85208 0.9034,1.85209 0.4361,1.71961 0.4362,1.71961 -0.133,2.51372 -0.1329,2.51372 -0.7171,1.95093 -0.7171,1.95093 -1.2935,2.1899 -1.2935,2.18991 -0.9533,2.07687 -0.9533,2.07688 -1.0053,2.51354 -1.0053,2.51354 -0.7978,2.51354 -0.7978,2.51354 -0.4773,2.57969 -0.4772,2.57969 z m 8.3273,-0.23603 h -0.5909 l 0.3438,-1.97687 0.3438,-1.97687 0.6763,-2.80637 0.6763,-2.80636 1.4504,-4.34429 1.45034,-4.34429 1.18036,-2.58028 1.18036,-2.58029 0.59385,-2.11667 0.59385,-2.11666 -0.007,-3.04271 -0.007,-3.04271 -0.43182,-1.76775 -0.43181,-1.76775 -1.07327,-2.46558 -1.07326,-2.46558 -0.48872,-0.92605 -0.48872,-0.92604 -0.93676,-2.77812 -0.9368,-2.77813 -1.2406,-3.96377 -1.2405,-3.96377 0.028,-3.2906 0.028,-3.2906 0.1296,-0.12964 0.1297,-0.12965 2.2512,0.47244 2.25122,0.47243 v 2.97644 2.97643 l 0.80581,2.61223 0.80581,2.61223 0.65567,3.43958 0.65567,3.43959 0.68792,2.24895 0.68792,2.24896 0.59245,1.71979 0.59245,1.7198 0.36701,1.85208 0.367,1.85208 -0.0194,3.175 -0.0194,3.175 -0.34377,1.5875 -0.34378,1.5875 -0.6089,1.85208 -0.6089,1.85209 -0.5687,3.04271 -0.5687,3.0427 -1.41177,5.95313 -1.41178,5.95312 -0.17182,0.83469 -0.17183,0.83468 -1.86908,0.42209 -1.869,0.42208 z m -13.8602,-0.8202 -0.1684,-0.0265 -1.9419,-0.74685 -1.9419,-0.74686 -0.1246,-0.12462 -0.1246,-0.12462 0.6926,-2.06341 0.6927,-2.0634 1.4691,-2.92565 1.4692,-2.92564 1.9366,-2.91042 1.9367,-2.91042 1.6167,-1.85208 1.6168,-1.85208 0.8921,-1.45521 0.8921,-1.45521 0.5692,-1.69519 0.5692,-1.69519 8e-4,-2.14127 7e-4,-2.14126 -0.5545,-1.77695 -0.5546,-1.77694 -1.1283,-1.68259 -1.1283,-1.68259 -1.179,-1.4054 -1.1789,-1.4054 -0.8756,-0.9559 -0.8757,-0.9559 -1.8572,-2.77813 -1.8573,-2.77812 -1.6989,-3.39143 -1.6989,-3.39144 v -2.45307 -2.45308 l 0.7276,-0.33803 0.7277,-0.33803 1.4304,-0.49819 1.4305,-0.49819 h 0.05 0.05 l 0.1677,3.30922 0.1678,3.30921 0.951,2.31318 0.951,2.31318 2.1053,4.07325 2.1052,4.07325 0.8517,1.06714 0.8518,1.06714 0.5291,0.84041 0.5292,0.8404 1.1158,1.65354 1.1158,1.65354 0.5793,1.49379 0.5794,1.49379 0.114,2.51354 0.114,2.51354 -0.6418,2.00412 -0.6419,2.00412 -1.2996,1.93534 -1.2996,1.93534 -1.517,2.41054 -1.517,2.41054 -1.6002,3.23891 -1.6002,3.2389 -1.0316,3.11109 -1.0317,3.1111 -0.1807,1.25677 -0.1806,1.25677 z m 19.86032,-0.56952 -0.34417,0.13374 0.14764,-0.62878 0.14763,-0.62878 1.30193,-5.42395 1.30193,-5.42396 0.55858,-3.04271 0.55859,-3.04271 0.62945,-1.98437 0.62945,-1.98438 0.41855,-2.03937 0.41855,-2.03936 -0.006,-3.38459 -0.006,-3.38459 -0.49983,-2.24896 -0.49982,-2.24896 -0.52564,-1.45521 -0.52563,-1.45521 -0.6886,-2.19915 -0.68861,-2.19915 -0.004,-0.57897 -0.004,-0.57898 -0.52781,-2.51354 -0.52781,-2.51354 -0.79096,-2.5549 -0.79096,-2.55489 v -2.80184 -2.80184 l 1.25677,0.50037 1.25677,0.50036 1.12448,0.46473 1.12448,0.46474 0.0202,1.61351 0.0202,1.61351 0.0867,0.39688 0.0867,0.39687 0.54938,3.175 0.54938,3.175 0.39652,3.39084 0.39651,3.39084 0.25045,0.97478 0.25045,0.97479 0.34279,2.51354 0.34278,2.51354 -0.003,6.21771 -0.003,6.21771 -0.59631,4.89479 -0.59631,4.89479 -0.78953,5.15938 -0.78953,5.15937 -0.22984,0.54701 -0.22984,0.54701 -2.0782,0.87407 -2.0782,0.87406 z m -25.58502,-1.81027 -0.2646,-0.0155 -1.3785,-0.83964 -1.3785,-0.83965 -0.295,-0.29774 -0.2951,-0.29775 0.9778,-1.95121 0.9779,-1.95121 1.4571,-2.24896 1.4571,-2.24896 1.3518,-1.71979 1.3518,-1.71979 2.463,-2.58957 2.4631,-2.58956 1.0544,-1.63139 1.0544,-1.63139 0.4422,-1.46759 0.4421,-1.46759 -0.016,-2.11666 -0.017,-2.11667 -0.5709,-1.48306 -0.5709,-1.48307 -0.8392,-1.29506 -0.8393,-1.29506 -3.0488,-3.04271 -3.0488,-3.0427 -1.6492,-2.15175 -1.6492,-2.15174 -1.4369,-2.21388 -1.437,-2.21388 -0.6579,-1.32292 -0.658,-1.32292 -0.1737,-0.95671 -0.1737,-0.95672 0.8652,-0.64583 0.8653,-0.64583 1.393,-0.84485 1.393,-0.84485 h 0.097 0.097 l 0.1166,2.4474 0.1166,2.44739 1.3912,2.77813 1.3913,2.77812 0.5559,0.92604 0.5559,0.92605 1.7073,2.63723 1.7072,2.63724 2.0969,2.33868 2.0968,2.33868 0.9975,1.54326 0.9975,1.54327 0.473,1.50382 0.473,1.50381 -0.1066,2.43727 -0.1066,2.43727 -0.9506,1.97515 -0.9505,1.97515 -1.8931,2.24896 -1.893,2.24895 -1.9884,2.94776 -1.9883,2.94776 -1.523,3.00537 -1.5229,3.00536 -0.6468,2.04578 -0.6469,2.04577 z m 32.6939,-1.74598 -0.81159,0.47798 0.003,-0.34569 0.003,-0.34569 0.52591,-3.30729 0.52592,-3.30729 0.66281,-5.28219 0.6628,-5.2822 0.26485,-4.1724 0.26486,-4.1724 -0.27767,-4.40071 -0.27768,-4.40071 -0.39345,-2.15199 -0.39345,-2.15198 -0.51994,-3.96875 -0.51994,-3.96875 -0.40425,-2.35012 -0.40426,-2.35011 -0.15412,-0.24936 -0.15411,-0.24937 -0.12772,-1.7287 -0.12772,-1.72871 0.83614,0.49172 0.83614,0.49173 1.76682,1.32402 1.76682,1.32401 0.44531,6.61349 0.44531,6.61348 0.27837,3.83646 0.27837,3.83646 -3.1e-4,5.02708 -3.1e-4,5.02708 -0.38678,6.74688 -0.38678,6.74687 -0.17605,2.20147 -0.17606,2.20146 -1.53176,1.23812 -1.53176,1.23812 z m -36.4063,-3.35779 -1.1013,2.15828 -1.4792,-1.22673 -1.4793,-1.22674 0.05,-0.193 0.05,-0.193 1.7145,-2.45283 1.7144,-2.45284 5.2309,-5.20868 5.2309,-5.20869 v -0.38131 -0.38132 l 0.3658,-0.30361 0.3658,-0.30361 0.572,-1.7793 0.572,-1.77931 -0.1073,-1.89301 -0.1074,-1.89302 -0.8386,-1.79221 -0.8387,-1.79221 -1.1511,-1.34186 -1.1511,-1.34186 -2.4466,-2.11666 -2.4467,-2.11667 -2.273,-2.33695 -2.273,-2.33696 -1.5562,-2.02867 -1.5562,-2.02867 -0.4017,-0.77563 -0.4017,-0.77564 1.67,-1.60561 1.67,-1.60562 0.176,0.83899 0.176,0.839 0.8656,1.67455 0.8656,1.67454 1.54,2.31256 1.5401,2.31256 1.5272,1.92077 1.5271,1.92078 2.9571,2.96361 2.957,2.96361 0.9576,1.57643 0.9577,1.57643 0.4347,1.76171 0.4347,1.76172 -0.3249,1.76341 -0.3249,1.76342 -0.922,1.7545 -0.9219,1.75449 -2.2627,2.35117 -2.2626,2.35116 -1.9175,2.38125 -1.9175,2.38125 -1.2788,1.97887 -1.2787,1.97887 z m 42.49745,-1.7504 -0.80309,0.92604 -10e-4,-0.92604 -10e-4,-0.92604 0.24037,-3.175 0.24038,-3.175 0.30687,-7.01146 0.30687,-7.01146 -0.28764,-5.29166 -0.28765,-5.29167 -0.39238,-5.55625 -0.39239,-5.55625 -0.16979,-1.32292 -0.1698,-1.32291 0.59268,0.52916 0.59269,0.52917 1.68826,2.10661 1.68827,2.10661 v 18.17105 18.17106 l -1.17417,1.55046 -1.17418,1.55046 z m -45.97625,-2.05641 -1.6158,2.30921 -1.1187,-1.21366 -1.1187,-1.21366 2.4795,-2.50655 2.4795,-2.50654 3.0847,-2.48976 3.0848,-2.48976 1.1103,-1.25862 1.1103,-1.25863 0.8107,-1.5875 0.8107,-1.5875 0.1131,-2.11666 0.1132,-2.11667 -0.5732,-1.51951 -0.5731,-1.5195 -1.1899,-1.58289 -1.1899,-1.58289 -2.4273,-1.92469 -2.4273,-1.92468 -1.4577,-1.04514 -1.4577,-1.04514 -2.7184,-2.65903 -2.7183,-2.65903 0.9445,-1.32291 0.9445,-1.32292 0.1904,-0.0675 0.1904,-0.0675 1.6689,2.36464 1.669,2.36463 2.6926,2.74443 2.6926,2.74443 1.7198,1.4358 1.7198,1.4358 1.5305,1.57856 1.5305,1.57855 0.7808,1.60137 0.7807,1.60136 0.1633,1.45521 0.1633,1.45521 -0.399,1.52143 -0.3989,1.52142 -0.7259,1.23867 -0.7259,1.23867 -5.0635,5.04511 -5.0635,5.04511 z m -4.6683,-1.38645 -0.047,-0.003 -0.5953,-0.91906 -0.5953,-0.91906 v -0.1062 -0.1062 l 1.7859,-1.43887 1.786,-1.43888 2.1166,-1.43289 2.1167,-1.43289 1.9181,-1.89052 1.9181,-1.89051 0.8191,-1.75056 0.8192,-1.75055 v -1.78519 -1.7852 l -0.5543,-1.45521 -0.5544,-1.4552 -1.1285,-1.37155 -1.1286,-1.37154 -1.5916,-1.27429 -1.5916,-1.27429 -2.774,-1.83416 -2.774,-1.83417 -1.1906,-0.93474 -1.1907,-0.93474 -0.1243,-0.0895 -0.1244,-0.0895 0.6291,-1.18572 0.629,-1.18573 1.2151,1.26966 1.2151,1.26965 1.7377,1.60405 1.7377,1.60405 1.305,0.8765 1.305,0.87649 0.2646,0.29985 0.2646,0.29985 1.3332,0.9678 1.3333,0.9678 1.393,1.47295 1.3931,1.47295 0.7133,1.52206 0.7133,1.52205 v 1.98437 1.98438 l -0.7141,1.3942 -0.7141,1.39421 -0.8682,1.08498 -0.8683,1.08498 -2.9085,2.28331 -2.9086,2.28332 -2.7332,2.71198 -2.7333,2.71198 z m 55.93199,-4.3009 -0.78764,1.52605 0.01,-15.875 0.01,-15.875 1.15927,2.39604 1.15926,2.39604 0.65808,2.45903 0.65807,2.45903 0.3121,2.68457 0.3121,2.68458 -0.16807,2.56471 -0.16808,2.56472 -0.40214,1.91172 -0.40215,1.91173 -0.78158,2.33286 -0.78158,2.33286 z m -55.90809,-0.53219 -2.0494,1.64593 -0.3941,-0.76205 -0.394,-0.76205 1.3834,-0.85268 1.3835,-0.85267 1.766,-1.17025 1.7661,-1.17025 1.4874,-1.49927 1.4873,-1.49928 0.8476,-1.72174 0.8477,-1.72174 -0.01,-1.72535 v -1.72536 l -0.7048,-1.51508 -0.7048,-1.51508 -0.8678,-1.07993 -0.8679,-1.07994 -1.8616,-1.40569 -1.8617,-1.4057 -2.5551,-1.52048 -2.555,-1.52049 0.2669,-0.76572 0.2669,-0.76573 1.0976,0.82682 1.0975,0.82682 1.8521,1.20957 1.8521,1.20957 2.2804,1.6666 2.2805,1.6666 0.9302,1.02961 0.9302,1.0296 0.7287,1.2434 0.7286,1.24339 0.1297,1.81261 0.1297,1.81262 -0.8017,1.71333 -0.8018,1.71334 -1.5533,1.54748 -1.5534,1.54748 -1.9768,1.32292 -1.9768,1.32291 z m -2.7799,-1.57951 -0.5926,0.38779 -0.1677,-0.43695 -0.1677,-0.43695 0.099,-0.0604 0.099,-0.0604 1.9519,-1.31723 1.9519,-1.31723 1.261,-1.37948 1.261,-1.37949 0.6236,-1.26635 0.6235,-1.26634 -0.01,-1.98438 -0.01,-1.98437 -0.7282,-1.39478 -0.7283,-1.39478 -1.514,-1.53161 -1.514,-1.53161 -2.1226,-1.30694 -2.1225,-1.30695 0.091,-0.46007 0.091,-0.46008 0.8411,0.42905 0.841,0.42904 2.9131,1.91693 2.913,1.91692 1.1053,1.19909 1.1053,1.19909 0.678,1.33799 0.678,1.33799 -0.01,1.53015 -0.01,1.53015 -0.5332,1.17542 -0.5332,1.17543 -0.9299,1.13471 -0.9298,1.13472 -1.5077,1.14517 -1.5077,1.14517 -1.4552,0.88193 -1.4552,0.88192 z m -1.3773,-2.05079 h -0.2791 v -0.28205 -0.28206 l 1.6658,-1.64129 1.6657,-1.6413 0.7155,-1.43589 0.7155,-1.43589 v -1.62558 -1.62559 l -0.7965,-1.59402 -0.7965,-1.59402 -1.3863,-1.30338 -1.3863,-1.30338 -0.6213,-0.42914 -0.6214,-0.42914 0.2374,-0.42412 0.2373,-0.42412 1.9715,1.34906 1.9715,1.34907 1.0986,1.06608 1.0986,1.06609 0.7314,1.34393 0.7315,1.34394 v 1.47067 1.47067 l -0.5956,1.16206 -0.5956,1.16206 -1.2323,1.31916 -1.2322,1.31916 -1.5068,1.02451 -1.5069,1.02451 z m -0.2697,-2.65086 -0.4838,0.25896 -0.1585,-0.63146 -0.1585,-0.63145 0.7926,-1.50676 0.7926,-1.50675 v -1.70172 -1.70172 l -0.6617,-1.24797 -0.6617,-1.24798 -0.3604,-0.52916 -0.3604,-0.52917 0.1732,-0.6575 0.1732,-0.65751 1.4003,1.30986 1.4004,1.30986 0.7009,1.19603 0.7009,1.19602 -0.01,1.45891 -0.01,1.45891 -0.4824,0.92604 -0.4824,0.92604 -0.9111,1.12479 -0.911,1.12478 z"
       id="path446" /><path
       d="m -965.04022,216.93212 h 1.76662 v -9.52947 h -1.76662 z m 6.17352,0 h 1.76662 v -3.6493 l 2.50164,3.6493 h 2.17929 l -2.57903,-3.52035 c 0.73502,-0.18053 1.09608,-0.34817 1.50872,-0.69633 0.65767,-0.55449 0.98003,-1.30242 0.98003,-2.25665 0,-0.98003 -0.34817,-1.79241 -1.00581,-2.34691 -0.61897,-0.5287 -1.30241,-0.70923 -2.60481,-0.70923 h -2.74665 z m 1.76662,-4.9775 v -2.86272 h 0.78661 c 0.82528,0 1.27662,0.0903 1.5603,0.33528 0.30948,0.245 0.46422,0.61898 0.46422,1.0832 0,1.00581 -0.58029,1.44424 -1.94715,1.44424 z m 12.86608,-4.71961 c -2.83692,0 -5.02908,2.15348 -5.02908,4.93883 0,2.75956 2.21795,4.92592 5.01619,4.92592 2.77245,0 4.91302,-2.15347 4.91302,-4.92592 0,-2.74666 -2.17926,-4.93883 -4.90013,-4.93883 z m -0.0257,1.70217 c 1.76662,0 3.1464,1.41845 3.1464,3.24956 0,1.84399 -1.34109,3.21088 -3.1464,3.21088 -1.80532,0 -3.22378,-1.41848 -3.22378,-3.22378 0,-1.84399 1.39267,-3.23666 3.22378,-3.23666 z m 8.88148,7.99494 h 1.76662 v -6.92466 l 3.9846,6.92466 h 1.97294 v -9.52947 h -1.76662 v 6.93757 l -3.9459,-6.93757 h -2.01164 z m 14.03954,0 h 1.39267 l 1.5732,-6.30569 1.5345,6.30569 h 1.40557 l 2.78534,-9.52947 h -1.80532 l -1.68925,6.65388 -1.59898,-6.65388 h -1.28952 l -1.62477,6.65388 -1.67637,-6.65388 h -1.80531 z m 16.4896,-9.69711 c -2.83693,0 -5.0291,2.15348 -5.0291,4.93883 0,2.75956 2.21795,4.92592 5.01618,4.92592 2.77247,0 4.91305,-2.15347 4.91305,-4.92592 0,-2.74666 -2.17928,-4.93883 -4.90013,-4.93883 z m -0.0257,1.70217 c 1.76663,0 3.1464,1.41845 3.1464,3.24956 0,1.84399 -1.3411,3.21088 -3.1464,3.21088 -1.80532,0 -3.22377,-1.41848 -3.22377,-3.22378 0,-1.84399 1.39267,-3.23666 3.22377,-3.23666 z m 13.42055,-1.70217 c -2.83692,0 -5.02908,2.15348 -5.02908,4.93883 0,2.75956 2.21795,4.92592 5.01618,4.92592 2.77245,0 4.91304,-2.15347 4.91304,-4.92592 0,-2.74666 -2.17927,-4.93883 -4.90014,-4.93883 z m -0.0257,1.70217 c 1.76664,0 3.1464,1.41845 3.1464,3.24956 0,1.84399 -1.34108,3.21088 -3.1464,3.21088 -1.8053,0 -3.22377,-1.41848 -3.22377,-3.22378 0,-1.84399 1.39267,-3.23666 3.22377,-3.23666 z m 8.88149,7.99494 h 2.21795 c 1.44425,0 2.30823,-0.14183 3.08192,-0.52868 1.47006,-0.72213 2.33401,-2.29533 2.33401,-4.2167 0,-1.81822 -0.7479,-3.30115 -2.07609,-4.10065 -0.74792,-0.45133 -1.8827,-0.68344 -3.37852,-0.68344 h -2.17927 z m 1.76662,-1.68925 v -6.15097 h 0.34816 c 1.13478,0 1.72795,0.10323 2.28244,0.38686 0.90265,0.46422 1.45715,1.48295 1.45715,2.70798 0,1.14765 -0.5287,2.16637 -1.37978,2.63059 -0.5287,0.28369 -1.26373,0.42554 -2.32112,0.42554 z"
       id="path447"
       style="font-weight:600;font-size:9.17222px;font-family:'URW Gothic';-inkscape-font-specification:'URW Gothic Semi-Bold';letter-spacing:1.82298px;display:inline;fill:#000000;fill-opacity:0.823529;stroke-width:1.40589"
       aria-label="IRONWOOD" /></g></svg>
